<svg fill="none" height="17" viewBox="0 0 148 17" width="148" xmlns="http://www.w3.org/2000/svg"><g fill="#fff"><path d="m6.70612 16.9992c-1.50472 0-2.75624-.2604-3.75456-.7813s-1.74345-1.2515-2.235373-2.192c-.477458-.9404-.716187-2.04-.716187-3.2988v-9.766151h3.36391v9.592551c0 .709.13022 1.3239.39065 1.8447.26043.5064.64384.9043 1.15024 1.1937.50639.2749 1.11407.4123 1.82302.4123.68002 0 1.26599-.1302 1.75791-.3906.5064-.2749.89705-.6656 1.17195-1.172.2749-.5208.41232-1.1502.41232-1.8881v-9.592551h3.3639v9.766151c0 1.3167-.2821 2.4452-.8464 3.3857-.5498.9259-1.3311 1.6421-2.3439 2.1485-.99827.4919-2.17745.7379-3.53748.7379z"/><path d="m16.1098 16.7822v-15.821251h4.5793l5.8814 10.070051.3472.6294h.1085v-10.699451h3.4074v15.821251h-4.2755l-6.1852-10.20027-.3473-.58597h-.1085v10.78624z"/><path d="m33.4539 16.7822v-15.821251h3.4074v15.821251z"/><path d="m43.7649 16.7822-4.8831-15.821251h3.5809l3.1686 11.437251.2822 1.3239h.1736l.2821-1.3239 3.1903-11.437251h3.581l-4.8831 15.821251z"/><path d="m55.1242 16.7822v-15.821251h12.3271v2.929861h-8.833v3.49412h7.6828v2.73457h-7.6828v3.7328h8.833v2.9299z"/><path d="m69.5158 16.7822v-15.821251h7.8563c1.2733 0 2.3222.209791 3.1469.629381.8392.40511 1.4686.98385 1.8881 1.73621.4196.75236.6294 1.6494.6294 2.69113 0 .8681-.1736 1.64216-.5208 2.32218-.3473.66555-.8464 1.20088-1.4975 1.60599-.6366.40516-1.4035.65836-2.3005.75956l.217-.5425 4.2754 6.6193h-4.1235l-3.4941-5.621h-2.8864v-2.60433h3.9932c.5788 0 1.0635-.07957 1.4541-.23872.3907-.15916.68-.38342.8681-.67279.2026-.30383.3039-.65831.3039-1.06343v-.69448c0-.43405-.1085-.79576-.3256-1.08513-.217-.30384-.5208-.5281-.9115-.67278-.3906-.14469-.8536-.21703-1.389-.21703h-4.2537l.5643-.60768v13.47737z"/><path d="m91.3875 16.9992c-1.5192 0-2.7852-.217-3.798-.6511-1.0128-.434-1.7796-1.0345-2.3005-1.8013-.5064-.7813-.7596-1.6783-.7596-2.6911h3.581c.0289.5642.1808 1.0345.4557 1.4106.2894.3618.68.6294 1.172.803.4919.1737 1.0779.2605 1.7579.2605s1.2443-.0724 1.6928-.217c.4485-.1592.7813-.3907.9983-.6945.2315-.3039.3472-.6656.3472-1.0852 0-.3906-.094-.7017-.2821-.9332-.1736-.2459-.434-.4413-.7813-.586-.3472-.1591-.7668-.2821-1.2587-.3689-.4775-.1013-1.0273-.2026-1.6494-.3038-.8826-.1302-1.6784-.3111-2.3873-.5426-.6945-.23149-1.2877-.52086-1.7796-.8681-.492-.36172-.8682-.79577-1.1286-1.30216-.246-.52087-.3689-1.14301-.3689-1.86643 0-1.0562.2676-1.93877.803-2.64772.5498-.72342 1.3094-1.25876 2.2787-1.606.9839-.36171 2.1197-.542565 3.4074-.542565 1.3889 0 2.5681.18809 3.5375.564265.9694.37618 1.7145.91875 2.2354 1.6277.5208.69449.7885 1.53366.803 2.51751h-3.6027c0-.44852-.123-.8247-.3689-1.12854-.246-.3183-.586-.55703-1.02-.71619-.4341-.17362-.9622-.26043-1.5843-.26043-.5788 0-1.0707.07234-1.4758.21703-.4051.14468-.7162.34724-.9332.60767-.2026.26043-.3039.57874-.3039.95492 0 .34724.0796.63661.2388.86811.1736.21702.4195.39064.7378.52086.3183.13021.7162.24596 1.1937.34724.4775.08681 1.0272.18086 1.6494.28214.6366.08681 1.2443.20255 1.823.34724.5932.14468 1.1358.33277 1.6277.56427.4919.23149.9115.52809 1.2588.88981.3617.34724.6366.77406.8247 1.28047.2025.5064.3038 1.1068.3038 1.8013 0 1.0707-.2821 1.9749-.8464 2.7128-.5498.7379-1.3383 1.295-2.3656 1.6711-1.0272.3762-2.2715.5643-3.7328.5643z"/><path d="m100.37 16.7822v-15.821251h12.327v2.929861h-8.833v3.49412h7.683v2.73457h-7.683v3.7328h8.833v2.9299z"/></g><path d="m114.688 1.5435c0-.31733.257-.574613.574-.574613h4.024c0 2.539713-2.059 4.598023-4.598 4.598023z" fill="#8b949e"/><path d="m119.948 16.7861v-.5643c0-.8392.166-1.5771.499-2.2137.347-.6366.796-1.2008 1.346-1.6928.564-.4919 1.186-.9332 1.866-1.3238.68-.4052 1.353-.7886 2.018-1.15027.68-.36172 1.303-.73066 1.867-1.10684.564-.39065 1.013-.81023 1.345-1.25875.333-.46299.5-.99109.5-1.5843 0-.57873-.138-1.04896-.413-1.41067-.275-.37618-.644-.65831-1.107-.8464-.448-.18809-.947-.28214-1.497-.28214-.709 0-1.317.12299-1.823.36895-.492.24596-.868.58597-1.129 1.02002-.26.43406-.412.94045-.455 1.51919h-2.974c.087-1.18641.398-2.17027.934-2.95156.535-.7813 1.273-1.36727 2.213-1.75791.941-.39065 2.055-.585976 3.342-.585976 1.288 0 2.38.202556 3.277.607676.898.40511 1.578.96938 2.041 1.6928.477.72343.716 1.56983.716 2.53921 0 .72342-.145 1.3745-.434 1.95324-.275.56427-.651 1.07067-1.129 1.51919-.463.44852-.976.85364-1.541 1.21534-.564.3617-1.143.7017-1.736 1.02s-1.15.6294-1.671.9332c-.521.3039-.962.615-1.324.9333s-.6.6655-.716 1.0417h8.659v2.3656z" fill="#8b949e"/><path d="m141.986 16.7861-.021-3.6244h-9.007v-2.1702l8.269-9.85303h3.863v9.59253h2.3v2.4307h-2.3v3.6244zm-5.708-6.0551h5.708v-6.70608z" fill="#8b949e"/></svg>
